<?xml version="1.0" standalone="no"?>
<!DOCTYPE svg PUBLIC "-//W3C//DTD SVG 20010904//EN"
 "http://www.w3.org/TR/2001/REC-SVG-20010904/DTD/svg10.dtd">
<svg version="1.0" xmlns="http://www.w3.org/2000/svg"
 width="1920.000000pt" height="1920.000000pt" viewBox="0 0 1920.000000 1920.000000"
 preserveAspectRatio="xMidYMid meet">

<g transform="translate(0.000000,1920.000000) scale(0.100000,-0.100000)"
fill="#000000" stroke="none">
<path d="M7808 13977 c-153 -56 -353 -206 -676 -507 -83 -77 -159 -140 -170
-140 -35 0 -169 40 -249 74 -44 18 -201 100 -349 181 -148 81 -303 161 -344
179 -72 30 -80 31 -215 31 -115 0 -155 -5 -225 -23 -186 -51 -338 -142 -508
-306 -126 -122 -195 -218 -223 -308 -35 -110 -18 -169 52 -188 99 -27 216 30
376 184 172 165 272 306 273 384 0 56 -30 36 -77 -52 -124 -231 -359 -453
-471 -444 -37 3 -37 3 -40 52 -6 94 94 254 258 409 99 95 190 154 290 188 93
33 255 33 360 0 98 -30 223 -96 329 -175 101 -75 217 -135 339 -176 95 -32
240 -60 307 -60 86 0 85 -2 -67 -159 -425 -436 -925 -1022 -1388 -1626 -487
-636 -677 -965 -605 -1045 38 -41 116 -13 258 94 121 91 171 178 70 121 -53
-29 -63 -31 -63 -10 0 88 390 633 984 1375 350 437 676 820 993 1164 l82 89
110 28 c204 51 411 163 577 311 138 123 204 218 204 295 0 79 -74 102 -192 60z
m112 -52 c63 -76 -221 -361 -495 -495 -111 -55 -240 -98 -253 -86 -7 8 308
318 415 408 187 156 299 214 333 173z"/>
<path d="M10813 12514 c-49 -25 -111 -97 -119 -139 -13 -72 29 -106 104 -85
65 18 142 102 142 154 0 67 -64 102 -127 70z"/>
<path d="M9077 12186 c-106 -57 -357 -351 -510 -599 -68 -111 -121 -162 -359
-342 -206 -156 -360 -242 -465 -260 -71 -11 -67 21 17 145 74 108 357 430 618
702 73 77 135 150 138 164 9 34 -12 51 -73 60 -78 12 -109 -5 -202 -110 -131
-149 -406 -414 -516 -497 -302 -229 -611 -427 -632 -405 -24 24 142 232 535
670 109 120 208 234 222 253 24 34 24 35 5 49 -11 8 -43 14 -78 14 l-60 0 -95
-97 c-246 -252 -544 -633 -623 -798 -32 -67 -37 -128 -13 -163 44 -63 167 1
574 300 96 70 187 138 202 150 15 12 30 19 33 16 4 -3 -31 -68 -75 -143 -93
-156 -136 -243 -145 -297 -6 -31 -3 -41 19 -62 30 -31 68 -33 147 -10 126 38
357 177 597 360 67 52 122 93 122 92 0 -2 -7 -25 -15 -52 -38 -124 41 -161
190 -91 81 39 235 143 235 160 0 29 -23 25 -78 -13 -115 -80 -237 -127 -267
-102 -24 20 -18 63 19 133 27 51 79 109 254 283 224 223 332 353 354 425 19
66 -15 96 -75 65z m13 -85 c0 -31 -84 -136 -223 -278 -148 -152 -192 -186
-132 -102 138 191 316 399 344 399 6 0 11 -9 11 -19z"/>
<path d="M14919 12073 c-41 -31 -101 -80 -135 -109 -33 -30 -150 -106 -260
-170 -303 -178 -664 -405 -664 -418 1 -43 19 -36 196 75 344 216 574 350 574
333 0 -3 -20 -36 -44 -73 -54 -82 -107 -187 -180 -360 -82 -193 -102 -228
-158 -282 -71 -68 -137 -99 -210 -99 -110 0 -178 60 -178 156 0 83 56 129 78
65 27 -78 136 -25 136 66 0 45 -24 63 -82 63 -57 0 -105 -23 -146 -72 -98
-114 -50 -277 98 -333 96 -37 272 2 443 97 111 62 548 332 571 353 8 7 10 19
5 33 -8 20 -22 13 -238 -124 -126 -79 -231 -140 -233 -134 -5 14 193 472 261
605 41 80 70 119 142 195 100 105 135 150 135 174 0 30 -38 16 -111 -41z"/>
<path d="M10443 12059 c-22 -8 -186 -181 -308 -324 -176 -206 -397 -509 -456
-624 -57 -111 -41 -191 36 -175 96 20 375 170 633 340 121 80 143 98 140 117
-2 12 -8 21 -14 20 -5 -1 -95 -56 -199 -123 -346 -224 -508 -310 -532 -286
-23 23 414 552 729 881 116 122 134 147 115 163 -16 12 -119 21 -144 11z"/>
<path d="M12145 11939 c-162 -202 -238 -269 -517 -454 -123 -80 -148 -101
-148 -121 0 -13 4 -24 10 -24 5 0 62 32 125 71 64 39 118 70 120 68 4 -5 -233
-275 -363 -412 -57 -60 -101 -115 -99 -121 4 -13 88 -20 135 -11 20 4 55 27
95 64 75 70 198 162 587 436 461 326 680 470 702 463 23 -8 -64 -107 -219
-250 -178 -164 -344 -335 -415 -428 -82 -109 -135 -267 -94 -283 57 -22 362
138 736 385 50 33 66 49 68 71 2 15 0 27 -3 27 -4 0 -77 -46 -163 -102 -332
-216 -518 -322 -550 -316 -22 5 65 96 283 300 240 225 396 406 451 523 43 90
26 186 -30 169 -11 -3 -46 -20 -76 -38 -63 -37 -746 -509 -933 -645 -186 -136
-180 -122 100 216 318 383 329 401 280 459 l-23 26 -59 -73z"/>
<path d="M12438 9761 c-36 -32 -34 -50 4 -31 34 18 58 42 52 51 -9 15 -22 10
-56 -20z"/>
<path d="M6654 9699 c-42 -12 -91 -69 -100 -114 -20 -109 65 -200 169 -181 72
13 117 73 117 153 0 104 -89 172 -186 142z m95 -30 c27 -26 41 -60 41 -103 0
-92 -35 -146 -94 -146 -67 0 -111 95 -87 188 20 73 92 105 140 61z"/>
<path d="M7504 9699 c-42 -12 -91 -69 -100 -114 -20 -109 65 -200 169 -181 72
13 117 73 117 153 0 104 -89 172 -186 142z m95 -30 c27 -26 41 -60 41 -103 0
-92 -35 -146 -94 -146 -67 0 -111 95 -87 188 20 73 92 105 140 61z"/>
<path d="M7967 9695 c-77 -27 -116 -94 -102 -176 16 -93 114 -143 214 -108 28
10 31 15 31 55 0 32 4 44 14 44 8 0 18 5 21 10 4 6 -17 10 -54 10 -34 0 -61
-4 -61 -10 0 -5 9 -10 20 -10 17 0 20 -7 20 -39 0 -32 -4 -40 -23 -45 -48 -12
-101 17 -119 64 -15 39 -11 117 8 149 44 74 155 65 127 -10 -12 -32 -4 -44 27
-34 45 14 35 80 -16 101 -41 17 -58 17 -107 -1z"/>
<path d="M13174 9696 c-34 -15 -44 -33 -44 -76 0 -32 13 -44 89 -85 46 -25 57
-35 59 -60 4 -34 -18 -55 -59 -55 -34 0 -53 23 -45 55 5 20 3 25 -13 25 -30 0
-46 -26 -33 -55 31 -68 178 -53 196 20 11 43 -13 77 -84 115 -53 28 -66 40
-68 62 -3 22 2 30 22 39 50 23 99 -14 64 -49 -9 -9 -7 -13 5 -18 23 -9 47 13
47 43 0 18 -9 28 -35 39 -42 17 -61 17 -101 0z"/>
<path d="M5690 9692 c0 -5 9 -12 20 -15 19 -5 20 -14 20 -126 0 -114 -1 -121
-20 -121 -11 0 -20 -4 -20 -10 0 -6 29 -10 66 -10 41 0 63 4 59 10 -3 6 -13
10 -21 10 -10 0 -14 13 -14 51 0 45 2 50 20 44 29 -9 97 13 115 38 8 12 15 38
15 59 0 56 -30 71 -146 76 -59 3 -94 1 -94 -6z m176 -38 c20 -19 24 -31 19
-52 -9 -38 -25 -52 -68 -59 l-37 -6 0 72 0 71 30 0 c20 0 40 -9 56 -26z"/>
<path d="M6080 9691 c0 -5 9 -11 20 -14 19 -5 20 -14 20 -122 0 -108 -1 -117
-20 -122 -42 -11 -18 -23 46 -23 41 0 63 4 59 10 -3 6 -13 10 -20 10 -18 0
-28 35 -23 81 l3 34 73 3 72 3 0 -56 c0 -48 -3 -58 -20 -62 -42 -11 -18 -23
46 -23 41 0 63 4 59 10 -3 6 -12 10 -20 10 -20 0 -25 24 -25 125 0 102 5 125
26 125 8 0 14 5 14 10 0 6 -27 10 -60 10 -58 0 -80 -12 -40 -23 17 -4 20 -14
20 -62 l0 -56 -72 3 -73 3 -3 34 c-5 52 5 81 29 81 11 0 17 5 14 10 -8 12
-125 13 -125 1z"/>
<path d="M7006 9684 c-9 -24 -7 -62 4 -69 5 -3 16 10 24 30 13 29 20 35 45 35
l31 0 0 -109 c0 -118 -4 -141 -26 -141 -8 0 -14 -4 -14 -10 0 -6 27 -10 60
-10 58 0 80 12 40 23 -19 5 -20 14 -20 127 l0 121 28 -3 c19 -2 31 -12 41 -35
20 -46 31 -41 31 12 l0 45 -119 0 c-99 0 -120 -3 -125 -16z"/>
<path d="M8300 9691 c0 -5 9 -11 20 -14 19 -5 20 -14 20 -125 0 -115 -1 -120
-22 -127 -21 -7 -20 -8 9 -12 18 -2 50 -2 70 0 33 3 35 5 16 12 -20 6 -23 14
-23 61 0 72 18 71 70 -6 41 -61 66 -76 111 -67 l24 4 -23 8 c-13 4 -40 33 -61
63 l-38 56 31 21 c26 17 31 27 31 60 0 36 -4 42 -35 57 -37 19 -200 26 -200 9z
m176 -36 c41 -41 17 -91 -49 -102 l-37 -6 0 60 c0 33 3 63 7 66 14 15 55 6 79
-18z"/>
<path d="M8817 9682 l21 -17 -50 -117 c-30 -71 -55 -118 -64 -118 -8 0 -14 -4
-14 -10 0 -5 23 -10 50 -10 28 0 50 5 50 10 0 6 -9 10 -20 10 -23 0 -24 5 -9
49 11 31 12 32 67 29 53 -3 56 -5 69 -36 13 -31 12 -34 -7 -39 -40 -11 -19
-23 40 -23 33 0 60 4 60 9 0 5 -7 11 -16 13 -10 2 -33 45 -60 112 -57 142 -66
156 -107 156 -32 0 -32 0 -10 -18z m56 -99 c9 -27 17 -51 17 -55 0 -5 -21 -8
-46 -8 -25 0 -44 3 -42 8 2 4 11 28 22 55 10 26 22 47 25 47 4 0 15 -21 24
-47z"/>
<path d="M9150 9692 c0 -5 9 -12 20 -15 19 -5 20 -14 20 -126 0 -114 -1 -121
-20 -121 -11 0 -20 -4 -20 -10 0 -6 29 -10 66 -10 41 0 63 4 59 10 -3 6 -13
10 -21 10 -10 0 -14 13 -14 51 0 45 2 50 20 44 29 -9 97 13 115 38 8 12 15 38
15 59 0 56 -30 71 -146 76 -59 3 -94 1 -94 -6z m176 -38 c20 -19 24 -31 19
-52 -9 -38 -25 -52 -68 -59 l-37 -6 0 72 0 71 30 0 c20 0 40 -9 56 -26z"/>
<path d="M9540 9691 c0 -5 9 -11 20 -14 19 -5 20 -14 20 -122 0 -108 -1 -117
-20 -122 -42 -11 -18 -23 46 -23 41 0 63 4 59 10 -3 6 -13 10 -20 10 -18 0
-28 35 -23 81 l3 34 73 3 72 3 0 -56 c0 -48 -3 -58 -20 -62 -42 -11 -18 -23
46 -23 41 0 63 4 59 10 -3 6 -12 10 -20 10 -20 0 -25 24 -25 125 0 102 5 125
26 125 8 0 14 5 14 10 0 6 -27 10 -60 10 -58 0 -80 -12 -40 -23 17 -4 20 -14
20 -62 l0 -56 -72 3 -73 3 -3 34 c-5 52 5 81 29 81 11 0 17 5 14 10 -8 12
-125 13 -125 1z"/>
<path d="M10020 9691 c0 -5 9 -11 20 -14 19 -5 20 -14 20 -122 0 -108 -1 -117
-20 -122 -11 -3 -20 -9 -20 -14 0 -6 49 -8 113 -7 l112 3 3 38 c4 44 -12 49
-27 7 -9 -28 -13 -30 -60 -30 -45 0 -51 3 -57 24 -3 13 -4 38 -2 57 3 32 5 34
48 38 l45 5 -45 5 -45 6 -3 58 -3 57 46 0 c43 0 47 -2 61 -35 16 -39 34 -38
34 0 0 53 -5 55 -116 55 -57 0 -104 -4 -104 -9z"/>
<path d="M11140 9694 c0 -3 9 -13 20 -22 10 -10 39 -71 62 -137 28 -79 48
-120 58 -120 9 0 30 43 60 125 34 95 50 127 68 135 36 16 26 25 -28 25 -27 0
-50 -4 -50 -10 0 -5 7 -10 15 -10 8 0 15 -3 15 -7 0 -17 -62 -194 -67 -190 -2
3 -19 44 -37 92 -18 47 -40 95 -49 106 -15 17 -67 28 -67 13z"/>
<path d="M11570 9691 c0 -5 9 -11 20 -14 19 -5 20 -14 20 -122 0 -108 -1 -117
-20 -122 -42 -11 -18 -23 46 -23 41 0 63 4 59 10 -3 6 -12 10 -20 10 -20 0
-25 24 -25 125 0 102 5 125 26 125 8 0 14 5 14 10 0 6 -27 10 -60 10 -33 0
-60 -4 -60 -9z"/>
<path d="M11860 9692 c0 -5 9 -12 20 -15 19 -5 20 -14 20 -122 0 -108 -1 -117
-20 -122 -45 -12 -15 -23 63 -23 59 0 94 6 124 20 76 34 103 115 65 190 -27
54 -71 74 -179 78 -58 3 -93 1 -93 -6z m189 -38 c57 -48 62 -155 9 -204 -27
-25 -103 -28 -112 -4 -3 9 -6 65 -6 125 l0 109 39 0 c28 0 49 -8 70 -26z"/>
<path d="M12310 9691 c0 -5 9 -11 20 -14 19 -5 20 -14 20 -122 0 -108 -1 -117
-20 -122 -11 -3 -20 -9 -20 -14 0 -6 49 -8 113 -7 l112 3 3 38 c4 44 -12 49
-27 7 -9 -28 -13 -30 -60 -30 -45 0 -51 3 -57 24 -3 13 -4 38 -2 57 3 32 5 34
48 38 l45 5 -45 5 -45 6 -3 58 -3 57 46 0 c43 0 47 -2 61 -35 16 -39 34 -38
34 0 0 53 -5 55 -116 55 -57 0 -104 -4 -104 -9z"/>
<path d="M12787 9682 l21 -17 -50 -117 c-30 -71 -55 -118 -64 -118 -8 0 -14
-4 -14 -10 0 -5 23 -10 50 -10 28 0 50 5 50 10 0 6 -9 10 -20 10 -23 0 -24 5
-9 49 11 31 12 32 67 29 53 -3 56 -5 69 -36 13 -31 12 -34 -7 -39 -40 -11 -19
-23 40 -23 33 0 60 4 60 9 0 5 -7 11 -16 13 -10 2 -33 45 -60 112 -57 142 -66
156 -107 156 -32 0 -32 0 -10 -18z m56 -99 c9 -27 17 -51 17 -55 0 -5 -21 -8
-46 -8 -25 0 -44 3 -42 8 2 4 11 28 22 55 10 26 22 47 25 47 4 0 15 -21 24
-47z"/>
<path d="M13486 9684 c-9 -24 -7 -62 4 -69 5 -3 16 10 24 30 13 29 20 35 45
35 l31 0 0 -109 c0 -118 -4 -141 -26 -141 -8 0 -14 -4 -14 -10 0 -6 27 -10 60
-10 58 0 80 12 40 23 -19 5 -20 14 -20 127 l0 121 28 -3 c19 -2 31 -12 41 -35
20 -46 31 -41 31 12 l0 45 -119 0 c-99 0 -120 -3 -125 -16z"/>
<path d="M13880 9691 c0 -5 9 -11 20 -14 19 -5 20 -14 20 -122 0 -108 -1 -117
-20 -122 -11 -3 -20 -9 -20 -14 0 -6 49 -8 113 -7 l112 3 3 38 c4 44 -12 49
-27 7 -9 -28 -13 -30 -60 -30 -45 0 -51 3 -57 24 -3 13 -4 38 -2 57 3 32 5 34
48 38 l45 5 -45 5 -45 6 -3 58 -3 57 46 0 c43 0 47 -2 61 -35 16 -39 34 -38
34 0 0 53 -5 55 -116 55 -57 0 -104 -4 -104 -9z"/>
<path d="M10640 9515 c0 -12 13 -15 60 -15 47 0 60 3 60 15 0 12 -13 15 -60
15 -47 0 -60 -3 -60 -15z"/>
</g>
</svg>
